<?xml version="1.0" encoding="UTF-8" standalone="no"?> <!-- Created with Vectornator for iOS (http://vectornator.io/) --><!DOCTYPE svg PUBLIC "-//W3C//DTD SVG 1.1//EN" "http://www.w3.org/Graphics/SVG/1.1/DTD/svg11.dtd">
<svg height="100%" style="fill-rule:evenodd;clip-rule:evenodd;stroke-linecap:round;stroke-linejoin:round;" xmlns:xlink="http://www.w3.org/1999/xlink" xmlns="http://www.w3.org/2000/svg" xml:space="preserve" width="100%" xmlns:vectornator="http://vectornator.io" version="1.1" viewBox="0 0 1024 1024">
<metadata>
<vectornator:setting key="DimensionsVisible" value="1"/>
<vectornator:setting key="New" value="1"/>
<vectornator:setting key="SnapToPoints" value="0"/>
<vectornator:setting key="OutlineMode" value="0"/>
<vectornator:setting key="RulersVisible" value="1"/>
<vectornator:setting key="GuidesVisible" value="1"/>
<vectornator:setting key="SnapToEdges" value="0"/>
<vectornator:setting key="DisplayWhiteBackground" value="0"/>
<vectornator:setting key="TimeLapseWatermarkDisabled" value="1"/>
<vectornator:setting key="SnapToGuides" value="1"/>
<vectornator:setting key="Units" value="Pixels"/>
<vectornator:setting key="DynamicGuides" value="0"/>
<vectornator:setting key="GridSpacing" value="36"/>
<vectornator:setting key="SnapToGrid" value="0"/>
</metadata>
<defs>
<linearGradient y1="512" id="LinearGradient" x1="34.5" y2="512" x2="989.5" gradientUnits="userSpaceOnUse" gradientTransform="matrix(1 0 0 1 0 0)">
<stop stop-color="#34b2f6" offset="0.0242718"/>
<stop stop-color="#d225f8" offset="1"/>
</linearGradient>
<linearGradient y1="512.936" id="LinearGradient_2" x1="93.3161" y2="512.936" x2="667.29" gradientUnits="userSpaceOnUse" gradientTransform="matrix(1.04534 0 0 0.999993 -4.2313 0.00281047)">
<stop stop-color="#d225f8" offset="0"/>
<stop stop-color="#ff8103" offset="1"/>
</linearGradient>
</defs>
<g id="Ebene 1" vectornator:layerName="Ebene 1">
<path d="M193.667+352.833C106.14+352.833+34.5+424.474+34.5+512C34.5+599.526+106.14+671.167+193.667+671.167L830.333+671.167C917.86+671.167+989.5+599.526+989.5+512C989.5+424.474+917.86+352.833+830.333+352.833L193.667+352.833ZM607.5+416.5L830.333+416.5C883.447+416.5+925.833+458.887+925.833+512C925.833+565.113+883.447+607.5+830.333+607.5L607.5+607.5L607.5+416.5Z" opacity="1" fill="url(#LinearGradient)"/>
<path stroke="#000000" stroke-width="2" d="M193.316+417.273C138.326+417.273+93.3161+460.33+93.3161+512.935C93.3161+565.54+138.326+608.597+193.316+608.597L593.316+608.597C648.306+608.597+693.316+565.54+693.316+512.935C693.316+460.33+648.306+417.273+593.316+417.273L193.316+417.273Z" fill="url(#LinearGradient_2)" stroke-linecap="butt" opacity="1" stroke-linejoin="miter"/>
<g opacity="1">
<path d="M216.791+500.744C216.791+498.344+216.527+496.808+215.999+496.136C215.471+495.464+214.391+495.128+212.759+495.128C211.799+495.128+210.839+495.296+209.879+495.632C208.919+495.968+208.055+496.376+207.287+496.856L207.287+551.864C207.287+552.632+207.191+553.208+206.999+553.592C206.807+553.976+206.183+554.24+205.127+554.384C204.071+554.528+202.463+554.624+200.303+554.672C198.143+554.72+195.095+554.744+191.159+554.744L191.159+486.056C193.943+484.712+197.255+483.584+201.095+482.672C204.935+481.76+209.015+481.304+213.335+481.304C218.327+481.304+222.311+482.552+225.287+485.048C227.783+483.896+230.543+482.984+233.567+482.312C236.591+481.64+239.495+481.304+242.279+481.304C245.927+481.304+248.831+481.736+250.991+482.6C253.151+483.464+254.783+484.736+255.887+486.416C256.991+488.096+257.711+490.16+258.047+492.608C258.383+495.056+258.551+497.816+258.551+500.888L258.551+551.864C258.551+552.632+258.431+553.208+258.191+553.592C257.951+553.976+257.327+554.24+256.319+554.384C255.311+554.528+253.703+554.624+251.495+554.672C249.287+554.72+246.263+554.744+242.423+554.744L242.423+501.32C242.423+499.112+242.135+497.576+241.559+496.712C240.983+495.848+239.879+495.416+238.247+495.416C236.231+495.416+234.455+495.848+232.919+496.712L232.919+551.864C232.919+552.632+232.847+553.208+232.703+553.592C232.559+553.976+231.983+554.24+230.975+554.384C229.967+554.528+228.383+554.624+226.223+554.672C224.063+554.72+220.919+554.744+216.791+554.744L216.791+500.744Z" opacity="1" fill="#ffffff"/>
<path d="M264.455+486.92C264.167+485.864+264.047+485.048+264.095+484.472C264.143+483.896+264.671+483.488+265.679+483.248C266.687+483.008+268.319+482.864+270.575+482.816C272.831+482.768+276.071+482.744+280.295+482.744L284.471+507.656C284.951+510.536+285.407+513.56+285.839+516.728C286.271+519.896+286.631+522.848+286.919+525.584C287.207+528.32+287.447+530.672+287.639+532.64C287.831+534.608+287.975+535.88+288.071+536.456C288.071+536.072+288.167+534.92+288.359+533C288.551+531.08+288.767+528.752+289.007+526.016C289.247+523.28+289.535+520.304+289.871+517.088C290.207+513.872+290.615+510.728+291.095+507.656L293.831+487.208C293.927+486.056+294.119+485.192+294.407+484.616C294.695+484.04+295.391+483.608+296.495+483.32C297.599+483.032+299.279+482.864+301.535+482.816C303.791+482.768+306.935+482.744+310.967+482.744L294.839+558.056C293.783+562.76+292.679+566.696+291.527+569.864C290.375+573.032+289.007+575.552+287.423+577.424C285.839+579.296+283.991+580.616+281.879+581.384C279.767+582.152+277.271+582.536+274.391+582.536C271.703+582.536+269.519+582.344+267.839+581.96C266.159+581.576+264.815+581.072+263.807+580.448C262.799+579.824+262.103+579.08+261.719+578.216C261.335+577.352+261.143+576.392+261.143+575.336C261.143+573.896+261.311+572.336+261.647+570.656C261.983+568.976+262.487+567.608+263.159+566.552C264.023+567.224+265.343+567.8+267.119+568.28C268.895+568.76+270.839+569+272.951+569C274.679+569+276.191+568.184+277.487+566.552C278.783+564.92+279.671+561.752+280.151+557.048L264.455+486.92Z" opacity="1" fill="#ffffff"/>
<path d="M336.599+487.784C339.095+486.056+342.047+484.544+345.455+483.248C348.863+481.952+352.583+481.304+356.615+481.304C360.551+481.304+363.143+481.88+364.391+483.032C365.639+484.184+366.263+486.008+366.263+488.504C366.263+489.464+366.167+490.808+365.975+492.536C365.783+494.264+365.351+496.04+364.679+497.864C363.623+497.384+362.663+497.072+361.799+496.928C360.935+496.784+360.119+496.712+359.351+496.712C358.487+496.712+357.479+496.904+356.327+497.288C355.175+497.672+354.119+498.248+353.159+499.016L353.015+551.864C353.015+552.632+352.919+553.208+352.727+553.592C352.535+553.976+351.935+554.24+350.927+554.384C349.919+554.528+348.311+554.624+346.103+554.672C343.895+554.72+340.727+554.744+336.599+554.744L336.599+487.784Z" opacity="1" fill="#ffffff"/>
<path d="M396.215+481.304C401.975+481.304+406.487+483.128+409.751+486.776C413.015+490.424+414.647+496.424+414.647+504.776C414.647+508.232+414.503+511.808+414.215+515.504C413.927+519.2+413.399+522.44+412.631+525.224C410.903+525.608+408.959+525.92+406.799+526.16C404.639+526.4+402.431+526.616+400.175+526.808C397.919+527+395.711+527.144+393.551+527.24C391.391+527.336+389.447+527.384+387.719+527.384C387.911+531.992+388.655+535.328+389.951+537.392C391.247+539.456+393.623+540.488+397.079+540.488C399.671+540.488+402.239+540.128+404.783+539.408C407.327+538.688+409.847+537.704+412.343+536.456C412.823+537.896+413.159+539.648+413.351+541.712C413.543+543.776+413.639+545.624+413.639+547.256C413.639+548.696+413.111+549.968+412.055+551.072C410.999+552.176+409.535+553.112+407.663+553.88C405.791+554.648+403.607+555.224+401.111+555.608C398.615+555.992+395.975+556.184+393.191+556.184C389.927+556.184+386.927+555.704+384.191+554.744C381.455+553.784+379.103+552.032+377.135+549.488C375.167+546.944+373.631+543.464+372.527+539.048C371.423+534.632+370.871+529.016+370.871+522.2C370.871+513.464+371.567+506.432+372.959+501.104C374.351+495.776+376.199+491.648+378.503+488.72C380.807+485.792+383.495+483.824+386.567+482.816C389.639+481.808+392.855+481.304+396.215+481.304ZM394.055+495.272C391.847+495.272+390.263+496.856+389.303+500.024C388.343+503.192+387.767+508.088+387.575+514.712C389.591+514.712+391.607+514.616+393.623+514.424C395.639+514.232+397.175+513.896+398.231+513.416C398.519+512.552+398.711+511.376+398.807+509.888C398.903+508.4+398.951+507.08+398.951+505.928C398.951+503.624+398.855+501.776+398.663+500.384C398.471+498.992+398.183+497.912+397.799+497.144C397.415+496.376+396.911+495.872+396.287+495.632C395.663+495.392+394.919+495.272+394.055+495.272Z" opacity="1" fill="#ffffff"/>
<path d="M438.407+551.864C438.407+552.632+438.311+553.208+438.119+553.592C437.927+553.976+437.327+554.24+436.319+554.384C435.311+554.528+433.727+554.624+431.567+554.672C429.407+554.72+426.311+554.744+422.279+554.744L422.279+455.96C422.279+454.232+422.495+452.888+422.927+451.928C423.359+450.968+424.175+450.272+425.375+449.84C426.575+449.408+428.231+449.144+430.343+449.048C432.455+448.952+435.143+448.904+438.407+448.904L438.407+551.864Z" opacity="1" fill="#ffffff"/>
<path d="M464.327+551.864C464.327+552.632+464.231+553.208+464.039+553.592C463.847+553.976+463.247+554.24+462.239+554.384C461.231+554.528+459.599+554.624+457.343+554.672C455.087+554.72+451.943+554.744+447.911+554.744L447.911+489.8C447.911+488.072+448.151+486.728+448.631+485.768C449.111+484.808+449.951+484.112+451.151+483.68C452.351+483.248+454.007+482.984+456.119+482.888C458.231+482.792+460.967+482.744+464.327+482.744L464.327+551.864ZM448.631+461.72C448.631+458.36+449.327+455.648+450.719+453.584C452.111+451.52+454.343+450.488+457.415+450.488C460.391+450.488+462.407+451.256+463.463+452.792C464.519+454.328+465.047+457.064+465.047+461C465.047+464.936+464.303+467.984+462.815+470.144C461.327+472.304+459.191+473.384+456.407+473.384C454.007+473.384+452.111+472.568+450.719+470.936C449.327+469.304+448.631+466.232+448.631+461.72Z" opacity="1" fill="#ffffff"/>
<path d="M489.959+551.864C489.959+552.632+489.863+553.208+489.671+553.592C489.479+553.976+488.879+554.24+487.871+554.384C486.863+554.528+485.279+554.624+483.119+554.672C480.959+554.72+477.863+554.744+473.831+554.744L473.831+455.96C473.831+454.232+474.047+452.888+474.479+451.928C474.911+450.968+475.727+450.272+476.927+449.84C478.127+449.408+479.783+449.144+481.895+449.048C484.007+448.952+486.695+448.904+489.959+448.904L489.959+551.864Z" opacity="1" fill="#ffffff"/>
<path d="M497.879+490.52C497.879+489.656+498.047+488.72+498.383+487.712C498.719+486.704+499.223+485.96+499.895+485.48C500.951+484.712+503.351+483.824+507.095+482.816C510.839+481.808+515.591+481.304+521.351+481.304C527.975+481.304+532.655+482.6+535.391+485.192C538.127+487.784+539.495+492.344+539.495+498.872L539.495+505.64C539.495+509.768+539.495+513.992+539.495+518.312C539.495+522.632+539.471+526.808+539.423+530.84C539.375+534.872+539.303+538.664+539.207+542.216C539.111+545.768+538.967+548.888+538.775+551.576C536.279+553.016+533.279+554.144+529.775+554.96C526.271+555.776+522.359+556.184+518.039+556.184C515.351+556.184+512.783+555.944+510.335+555.464C507.887+554.984+505.727+553.976+503.855+552.44C501.983+550.904+500.471+548.648+499.319+545.672C498.167+542.696+497.591+538.712+497.591+533.72C497.591+528.824+498.047+524.816+498.959+521.696C499.871+518.576+501.095+516.152+502.631+514.424C504.167+512.696+505.943+511.52+507.959+510.896C509.975+510.272+512.039+509.96+514.151+509.96C515.207+509.96+516.671+510.104+518.543+510.392C520.415+510.68+522.023+511.256+523.367+512.12L523.367+502.184C523.367+500.264+522.911+498.896+521.999+498.08C521.087+497.264+519.527+496.856+517.319+496.856C514.631+496.856+511.679+497.144+508.463+497.72C505.247+498.296+502.439+499.016+500.039+499.88C499.175+498.248+498.599+496.568+498.311+494.84C498.023+493.112+497.879+491.672+497.879+490.52ZM523.367+522.92C522.887+522.44+522.287+522.128+521.567+521.984C520.847+521.84+520.199+521.768+519.623+521.768C517.991+521.768+516.743+522.536+515.879+524.072C515.015+525.608+514.583+528.68+514.583+533.288C514.583+536.744+514.895+539.216+515.519+540.704C516.143+542.192+517.367+542.936+519.191+542.936C519.863+542.936+520.559+542.816+521.279+542.576C521.999+542.336+522.599+541.976+523.079+541.496C523.175+540.728+523.247+539.6+523.295+538.112C523.343+536.624+523.367+535.016+523.367+533.288C523.367+531.56+523.367+529.784+523.367+527.96C523.367+526.136+523.367+524.456+523.367+522.92Z" opacity="1" fill="#ffffff"/>
<path d="M548.423+456.104C548.423+454.28+548.639+452.888+549.071+451.928C549.503+450.968+550.295+450.272+551.447+449.84C552.599+449.408+554.231+449.144+556.343+449.048C558.455+448.952+561.191+448.904+564.551+448.904L564.551+485.48C566.087+484.136+567.887+483.104+569.951+482.384C572.015+481.664+574.295+481.304+576.791+481.304C579.671+481.304+582.119+481.808+584.135+482.816C586.151+483.824+587.831+485.48+589.175+487.784C590.519+490.088+591.503+493.112+592.127+496.856C592.751+500.6+593.063+505.16+593.063+510.536C593.063+520.808+592.199+528.944+590.471+534.944C588.743+540.944+586.535+545.528+583.847+548.696C581.159+551.864+578.159+553.904+574.847+554.816C571.535+555.728+568.343+556.184+565.271+556.184C561.431+556.184+558.071+555.8+555.191+555.032C552.311+554.264+550.055+553.208+548.423+551.864L548.423+456.104ZM564.551+540.92C565.319+541.688+566.375+542.072+567.719+542.072C568.391+542.072+569.135+541.712+569.951+540.992C570.767+540.272+571.535+538.88+572.255+536.816C572.975+534.752+573.575+531.848+574.055+528.104C574.535+524.36+574.775+519.464+574.775+513.416C574.775+506.792+574.319+502.184+573.407+499.592C572.495+497+571.127+495.704+569.303+495.704C567.479+495.704+565.895+496.376+564.551+497.72L564.551+540.92Z" opacity="1" fill="#ffffff"/>
</g>
</g>
</svg>
