<?xml version="1.0" encoding="UTF-8" standalone="no"?> <!-- Created with Vectornator for iOS (http://vectornator.io/) --><!DOCTYPE svg PUBLIC "-//W3C//DTD SVG 1.1//EN" "http://www.w3.org/Graphics/SVG/1.1/DTD/svg11.dtd">
<svg style="fill-rule:evenodd;clip-rule:evenodd;stroke-linecap:round;stroke-linejoin:round;" xmlns:vectornator="http://vectornator.io" xmlns:xlink="http://www.w3.org/1999/xlink" xmlns="http://www.w3.org/2000/svg" xml:space="preserve" version="1.1" viewBox="0 0 1024 1024">
<metadata>
<vectornator:setting key="DimensionsVisible" value="1"/>
<vectornator:setting key="Units" value="Pixels"/>
<vectornator:setting key="SnapToPoints" value="0"/>
<vectornator:setting key="OutlineMode" value="0"/>
<vectornator:setting key="RulersVisible" value="1"/>
<vectornator:setting key="GuidesVisible" value="1"/>
<vectornator:setting key="SnapToEdges" value="0"/>
<vectornator:setting key="CMYKEnabledKey" value="0"/>
<vectornator:setting key="DisplayWhiteBackground" value="0"/>
<vectornator:setting key="TimeLapseWatermarkDisabled" value="1"/>
<vectornator:setting key="SnapToGuides" value="1"/>
<vectornator:setting key="GridSpacing" value="36"/>
<vectornator:setting key="SnapToGrid" value="0"/>
<vectornator:setting key="DynamicGuides" value="0"/>
<vectornator:setting key="New" value="1"/>
</metadata>
<defs>
<linearGradient y1="512" id="LinearGradient" x1="34.5" y2="512" x2="989.5" gradientUnits="userSpaceOnUse" gradientTransform="matrix(1 0 0 1 0 0)">
<stop stop-color="#34b2f6" offset="0.0242718"/>
<stop stop-color="#d225f8" offset="1"/>
</linearGradient>
<linearGradient y1="512.936" id="LinearGradient_2" x1="93.3161" y2="512.936" x2="667.29" gradientUnits="userSpaceOnUse" gradientTransform="matrix(1.04534 0 0 0.999993 -4.2313 0.00281047)">
<stop stop-color="#d225f8" offset="0"/>
<stop stop-color="#ff8103" offset="1"/>
</linearGradient>
<linearGradient y1="512" id="LinearGradient_3" x1="34.5" y2="512" x2="989.5" gradientUnits="userSpaceOnUse" gradientTransform="matrix(1 0 0 1 0 0)">
<stop stop-color="#34b2f6" offset="0.0242718"/>
<stop stop-color="#d225f8" offset="1"/>
</linearGradient>
<linearGradient y1="512.936" id="LinearGradient_4" x1="93.3161" y2="512.936" x2="667.29" gradientUnits="userSpaceOnUse" gradientTransform="matrix(1.04534 0 0 0.999993 -4.2313 0.00281047)">
<stop stop-color="#d225f8" offset="0"/>
<stop stop-color="#ff8103" offset="1"/>
</linearGradient>
</defs>
<g id="Ebene 1 kopieren" vectornator:layerName="Ebene 1 kopieren">
<path d="M193.667+352.833C106.14+352.833+34.5+424.474+34.5+512C34.5+599.526+106.14+671.167+193.667+671.167L830.333+671.167C917.86+671.167+989.5+599.526+989.5+512C989.5+424.474+917.86+352.833+830.333+352.833L193.667+352.833ZM607.5+416.5L830.333+416.5C883.447+416.5+925.833+458.887+925.833+512C925.833+565.113+883.447+607.5+830.333+607.5L607.5+607.5L607.5+416.5Z" opacity="1" fill="url(#LinearGradient)"/>
<path stroke="#000000" stroke-width="2" d="M193.316+417.273C138.326+417.273+93.3161+460.33+93.3161+512.935C93.3161+565.54+138.326+608.597+193.316+608.597L593.316+608.597C648.306+608.597+693.316+565.54+693.316+512.935C693.316+460.33+648.306+417.273+593.316+417.273L193.316+417.273Z" fill="url(#LinearGradient_2)" stroke-linecap="butt" opacity="1" stroke-linejoin="miter"/>
<g opacity="1">
<path d="M191.159+560.744C207.431+560.744+207.431+560.744+207.431+557.864L207.431+504.872C209.591+503.288+212.183+502.568+213.911+502.568C215.351+502.568+217.223+502.712+219.239+503.72C220.535+500.12+220.823+496.376+220.823+494.504C220.823+489.608+218.951+487.304+211.175+487.304C203.255+487.304+196.343+490.328+191.159+493.784L191.159+560.744Z" opacity="1" fill="#ffffff"/>
<path d="M251.351+546.632C244.439+546.632+242.423+542.6+241.847+533.24C249.047+533.096+259.847+532.664+266.903+531.224C268.343+525.608+268.919+517.688+268.919+510.776C268.919+494.072+262.007+487.304+250.487+487.304C237.095+487.304+225.143+493.352+225.143+528.2C225.143+555.56+234.359+562.184+247.463+562.184C258.695+562.184+267.911+559.016+267.911+553.256C267.911+549.944+267.479+545.48+266.615+542.6C261.575+545.048+256.535+546.632+251.351+546.632ZM248.471+501.128C252.071+501.128+253.367+502.712+253.367+511.928C253.367+514.232+253.223+517.688+252.647+519.416C250.487+520.424+245.879+520.712+241.847+520.712C242.279+507.464+244.007+501.128+248.471+501.128Z" opacity="1" fill="#ffffff"/>
<path d="M292.679+454.904C279.719+454.904+276.695+454.904+276.695+461.96L276.695+560.744C292.679+560.744+292.679+560.744+292.679+557.864L292.679+454.904Z" opacity="1" fill="#ffffff"/>
<path d="M302.327+470.6C302.327+479.528+305.351+482.12+310.103+482.12C315.719+482.12+318.599+477.512+318.599+469.88C318.743+462.104+317.015+459.368+311.111+459.368C305.063+459.368+302.327+463.976+302.327+470.6ZM318.599+488.744C305.495+488.744+302.327+488.744+302.327+495.8L302.327+560.744C318.455+560.744+318.599+560.744+318.599+557.864L318.599+488.744Z" opacity="1" fill="#ffffff"/>
<path d="M344.231+454.904C331.271+454.904+328.247+454.904+328.247+461.96L328.247+560.744C344.231+560.744+344.231+560.744+344.231+557.864L344.231+454.904Z" opacity="1" fill="#ffffff"/>
<path d="M393.911+504.872C393.911+491.912+389.015+487.304+375.767+487.304C364.247+487.304+356.327+489.896+354.311+491.48C353.015+492.488+352.295+494.792+352.295+496.52C352.295+498.824+352.727+502.424+354.455+505.736C359.207+504.008+366.407+502.712+371.879+502.712C376.343+502.712+377.927+504.296+377.927+508.184L377.927+518.12C375.335+516.392+370.871+515.96+368.711+515.96C360.215+515.96+352.007+519.992+352.007+539.72C352.007+559.736+361.799+562.184+372.455+562.184C381.095+562.184+388.295+560.456+393.191+557.576C393.911+546.92+393.911+528.2+393.911+511.64L393.911+504.872ZM377.927+528.92C377.927+534.968+377.927+544.328+377.639+547.64C376.775+548.648+375.047+549.08+373.607+549.08C370.007+549.08+368.855+546.344+368.855+539.288C368.855+529.928+370.871+527.624+374.183+527.624C375.335+527.624+376.919+528.056+377.927+528.92Z" opacity="1" fill="#ffffff"/>
<path d="M402.983+557.864C406.151+560.456+412.199+562.184+419.831+562.184C432.215+562.184+447.623+557.432+447.623+516.536C447.623+494.936+442.727+487.304+431.351+487.304C426.311+487.304+422.135+488.888+418.967+491.48L418.967+454.904C405.575+454.904+402.983+454.904+402.983+462.104L402.983+557.864ZM418.967+503.72C420.551+502.136+422.279+501.56+424.007+501.56C427.607+501.56+429.623+506.024+429.623+519.416C429.623+543.896+425.159+548.216+422.279+548.216C420.983+548.216+419.831+547.784+418.967+547.064L418.967+503.72Z" opacity="1" fill="#ffffff"/>
</g>
</g>
<g id="Ebene 1" vectornator:layerName="Ebene 1">
<path d="M193.667+352.833C106.14+352.833+34.5+424.474+34.5+512C34.5+599.526+106.14+671.167+193.667+671.167L830.333+671.167C917.86+671.167+989.5+599.526+989.5+512C989.5+424.474+917.86+352.833+830.333+352.833L193.667+352.833ZM607.5+416.5L830.333+416.5C883.447+416.5+925.833+458.887+925.833+512C925.833+565.113+883.447+607.5+830.333+607.5L607.5+607.5L607.5+416.5Z" opacity="0" fill="url(#LinearGradient_3)"/>
<path stroke="#000000" stroke-width="2" d="M193.316+417.273C138.326+417.273+93.3161+460.33+93.3161+512.935C93.3161+565.54+138.326+608.597+193.316+608.597L593.316+608.597C648.306+608.597+693.316+565.54+693.316+512.935C693.316+460.33+648.306+417.273+593.316+417.273L193.316+417.273Z" fill="url(#LinearGradient_4)" stroke-linecap="butt" opacity="1" stroke-linejoin="miter"/>
</g>
</svg>
