<?xml version="1.0" encoding="UTF-8" standalone="no"?> <!-- Created with Vectornator for iOS (http://vectornator.io/) --><!DOCTYPE svg PUBLIC "-//W3C//DTD SVG 1.1//EN" "http://www.w3.org/Graphics/SVG/1.1/DTD/svg11.dtd">
<svg style="fill-rule:evenodd;clip-rule:evenodd;stroke-linecap:round;stroke-linejoin:round;" xmlns:vectornator="http://vectornator.io" xmlns:xlink="http://www.w3.org/1999/xlink" xmlns="http://www.w3.org/2000/svg" xml:space="preserve" version="1.1" viewBox="0 0 1024 1024">
<metadata>
<vectornator:setting key="DimensionsVisible" value="1"/>
<vectornator:setting key="GridSpacing" value="36"/>
<vectornator:setting key="SnapToPoints" value="0"/>
<vectornator:setting key="OutlineMode" value="0"/>
<vectornator:setting key="RulersVisible" value="1"/>
<vectornator:setting key="GuidesVisible" value="1"/>
<vectornator:setting key="SnapToEdges" value="0"/>
<vectornator:setting key="DisplayWhiteBackground" value="0"/>
<vectornator:setting key="TimeLapseWatermarkDisabled" value="1"/>
<vectornator:setting key="SnapToGuides" value="1"/>
<vectornator:setting key="Units" value="Pixels"/>
<vectornator:setting key="SnapToGrid" value="0"/>
<vectornator:setting key="DynamicGuides" value="0"/>
<vectornator:setting key="New" value="1"/>
</metadata>
<defs>
<linearGradient y1="512" id="LinearGradient" x1="34.5" y2="512" x2="989.5" gradientUnits="userSpaceOnUse" gradientTransform="matrix(1 0 0 1 0 0)">
<stop stop-color="#34b2f6" offset="0.0242718"/>
<stop stop-color="#d225f8" offset="1"/>
</linearGradient>
<linearGradient y1="512.936" id="LinearGradient_2" x1="93.3161" y2="512.936" x2="667.29" gradientUnits="userSpaceOnUse" gradientTransform="matrix(1.04534 0 0 0.999993 -4.2313 0.00281047)">
<stop stop-color="#d225f8" offset="0"/>
<stop stop-color="#ff8103" offset="1"/>
</linearGradient>
</defs>
<g id="Ebene 1" vectornator:layerName="Ebene 1">
<path d="M193.667+352.833C106.14+352.833+34.5+424.474+34.5+512C34.5+599.526+106.14+671.167+193.667+671.167L830.333+671.167C917.86+671.167+989.5+599.526+989.5+512C989.5+424.474+917.86+352.833+830.333+352.833L193.667+352.833ZM607.5+416.5L830.333+416.5C883.447+416.5+925.833+458.887+925.833+512C925.833+565.113+883.447+607.5+830.333+607.5L607.5+607.5L607.5+416.5Z" opacity="1" fill="url(#LinearGradient)"/>
<path stroke="#000000" stroke-width="2" d="M193.316+417.273C138.326+417.273+93.3161+460.33+93.3161+512.935C93.3161+565.54+138.326+608.597+193.316+608.597L593.316+608.597C648.306+608.597+693.316+565.54+693.316+512.935C693.316+460.33+648.306+417.273+593.316+417.273L193.316+417.273Z" fill="url(#LinearGradient_2)" stroke-linecap="butt" opacity="1" stroke-linejoin="miter"/>
<g opacity="1">
<path d="M128.659+559.744C144.931+559.744+144.931+559.744+144.931+556.864L144.931+503.872C147.091+502.288+149.683+501.568+151.411+501.568C152.851+501.568+154.723+501.712+156.739+502.72C158.035+499.12+158.323+495.376+158.323+493.504C158.323+488.608+156.451+486.304+148.675+486.304C140.755+486.304+133.843+489.328+128.659+492.784L128.659+559.744Z" opacity="1" fill="#ffffff"/>
<path d="M188.851+545.632C181.939+545.632+179.923+541.6+179.347+532.24C186.547+532.096+197.347+531.664+204.403+530.224C205.843+524.608+206.419+516.688+206.419+509.776C206.419+493.072+199.507+486.304+187.987+486.304C174.595+486.304+162.643+492.352+162.643+527.2C162.643+554.56+171.859+561.184+184.963+561.184C196.195+561.184+205.411+558.016+205.411+552.256C205.411+548.944+204.979+544.48+204.115+541.6C199.075+544.048+194.035+545.632+188.851+545.632ZM185.971+500.128C189.571+500.128+190.867+501.712+190.867+510.928C190.867+513.232+190.723+516.688+190.147+518.416C187.987+519.424+183.379+519.712+179.347+519.712C179.779+506.464+181.507+500.128+185.971+500.128Z" opacity="1" fill="#ffffff"/>
<path d="M230.179+453.904C217.219+453.904+214.195+453.904+214.195+460.96L214.195+559.744C230.179+559.744+230.179+559.744+230.179+556.864L230.179+453.904Z" opacity="1" fill="#ffffff"/>
<path d="M239.827+469.6C239.827+478.528+242.851+481.12+247.603+481.12C253.219+481.12+256.099+476.512+256.099+468.88C256.243+461.104+254.515+458.368+248.611+458.368C242.563+458.368+239.827+462.976+239.827+469.6ZM256.099+487.744C242.995+487.744+239.827+487.744+239.827+494.8L239.827+559.744C255.955+559.744+256.099+559.744+256.099+556.864L256.099+487.744Z" opacity="1" fill="#ffffff"/>
<path d="M281.731+453.904C268.771+453.904+265.747+453.904+265.747+460.96L265.747+559.744C281.731+559.744+281.731+559.744+281.731+556.864L281.731+453.904Z" opacity="1" fill="#ffffff"/>
<path d="M331.411+503.872C331.411+490.912+326.515+486.304+313.267+486.304C301.747+486.304+293.827+488.896+291.811+490.48C290.515+491.488+289.795+493.792+289.795+495.52C289.795+497.824+290.227+501.424+291.955+504.736C296.707+503.008+303.907+501.712+309.379+501.712C313.843+501.712+315.427+503.296+315.427+507.184L315.427+517.12C312.835+515.392+308.371+514.96+306.211+514.96C297.715+514.96+289.507+518.992+289.507+538.72C289.507+558.736+299.299+561.184+309.955+561.184C318.595+561.184+325.795+559.456+330.691+556.576C331.411+545.92+331.411+527.2+331.411+510.64L331.411+503.872ZM315.427+527.92C315.427+533.968+315.427+543.328+315.139+546.64C314.275+547.648+312.547+548.08+311.107+548.08C307.507+548.08+306.355+545.344+306.355+538.288C306.355+528.928+308.371+526.624+311.683+526.624C312.835+526.624+314.419+527.056+315.427+527.92Z" opacity="1" fill="#ffffff"/>
<path d="M340.483+556.864C343.651+559.456+349.699+561.184+357.331+561.184C369.715+561.184+385.123+556.432+385.123+515.536C385.123+493.936+380.227+486.304+368.851+486.304C363.811+486.304+359.635+487.888+356.467+490.48L356.467+453.904C343.075+453.904+340.483+453.904+340.483+461.104L340.483+556.864ZM356.467+502.72C358.051+501.136+359.779+500.56+361.507+500.56C365.107+500.56+367.123+505.024+367.123+518.416C367.123+542.896+362.659+547.216+359.779+547.216C358.483+547.216+357.331+546.784+356.467+546.064L356.467+502.72Z" opacity="1" fill="#ffffff"/>
<path d="M418.963+526.048C421.843+526.048+421.843+521.728+421.843+512.224L395.347+512.224C392.467+512.224+392.467+516.544+392.467+526.048L418.963+526.048Z" opacity="1" fill="#ffffff"/>
<path d="M430.483+458.944C428.467+458.944+427.603+459.808+427.603+461.824L427.603+473.92L445.171+473.92L445.171+559.744C460.867+559.744+461.155+559.744+461.155+556.864L461.155+473.92L476.563+473.92C478.579+473.92+479.443+473.344+479.443+471.04L479.443+458.944L430.483+458.944Z" opacity="1" fill="#ffffff"/>
<path d="M525.667+503.872C525.667+490.912+520.771+486.304+507.523+486.304C496.003+486.304+488.083+488.896+486.067+490.48C484.771+491.488+484.051+493.792+484.051+495.52C484.051+497.824+484.483+501.424+486.211+504.736C490.963+503.008+498.163+501.712+503.635+501.712C508.099+501.712+509.683+503.296+509.683+507.184L509.683+517.12C507.091+515.392+502.627+514.96+500.467+514.96C491.971+514.96+483.763+518.992+483.763+538.72C483.763+558.736+493.555+561.184+504.211+561.184C512.851+561.184+520.051+559.456+524.947+556.576C525.667+545.92+525.667+527.2+525.667+510.64L525.667+503.872ZM509.683+527.92C509.683+533.968+509.683+543.328+509.395+546.64C508.531+547.648+506.803+548.08+505.363+548.08C501.763+548.08+500.611+545.344+500.611+538.288C500.611+528.928+502.627+526.624+505.939+526.624C507.091+526.624+508.675+527.056+509.683+527.92Z" opacity="1" fill="#ffffff"/>
<path d="M550.435+453.904C537.475+453.904+534.451+453.904+534.451+460.96L534.451+559.744C550.435+559.744+550.435+559.744+550.435+556.864L550.435+453.904Z" opacity="1" fill="#ffffff"/>
<path d="M560.083+559.744C576.355+559.744+576.211+559.744+576.211+556.864L576.211+529.936C576.211+529.936+578.371+527.776+581.251+527.776C586.147+527.776+587.587+534.976+587.587+545.632C587.587+550.096+587.299+554.992+586.867+559.744C604.723+559.744+604.867+559.744+605.155+557.296C605.443+554.128+605.587+550.816+605.587+547.792C605.587+535.984+602.707+525.76+595.075+520.288C598.387+516.832+603.571+509.344+603.571+498.544C603.571+492.928+601.411+486.304+591.619+486.304C585.571+486.304+580.243+488.176+576.211+490.48L576.211+453.904C563.107+453.904+560.083+453.904+560.083+460.96L560.083+559.744ZM576.211+504.736C578.083+502.144+580.099+500.56+582.691+500.56C584.707+500.56+585.571+502+585.571+504.592C585.571+511.648+582.259+515.824+576.211+519.28L576.211+504.736Z" opacity="1" fill="#ffffff"/>
<path d="M629.491+532.672C632.371+535.984+632.803+538.72+632.803+540.736C632.803+544.48+630.355+546.928+625.315+546.928C621.139+546.928+616.675+545.92+612.643+543.76C610.771+547.216+610.051+550.384+610.051+552.688C610.051+559.168+617.683+561.184+627.043+561.184C641.731+561.184+651.091+553.408+651.091+540.448C651.091+533.248+649.651+529.072+643.891+522.448L633.235+511.648C629.347+507.76+628.915+506.032+628.915+504.448C628.915+501.568+631.219+499.984+635.827+499.984C640.291+499.984+644.323+500.848+648.355+503.008C650.227+500.848+651.379+497.824+651.379+495.376C651.379+491.776+649.795+486.304+633.667+486.304C615.955+486.304+609.907+494.08+609.907+504.16C609.907+508.336+611.779+514.096+616.963+519.424L629.491+532.672Z" opacity="1" fill="#ffffff"/>
</g>
</g>
</svg>
