<?xml version="1.0" encoding="UTF-8" standalone="no"?> <!-- Created with Vectornator for iOS (http://vectornator.io/) --><!DOCTYPE svg PUBLIC "-//W3C//DTD SVG 1.1//EN" "http://www.w3.org/Graphics/SVG/1.1/DTD/svg11.dtd">
<svg height="100%" style="fill-rule:evenodd;clip-rule:evenodd;stroke-linecap:round;stroke-linejoin:round;" xmlns:xlink="http://www.w3.org/1999/xlink" xmlns="http://www.w3.org/2000/svg" xml:space="preserve" width="100%" xmlns:vectornator="http://vectornator.io" version="1.1" viewBox="0 0 1024 1024">
<metadata>
<vectornator:setting key="DimensionsVisible" value="1"/>
<vectornator:setting key="New" value="1"/>
<vectornator:setting key="SnapToPoints" value="0"/>
<vectornator:setting key="OutlineMode" value="0"/>
<vectornator:setting key="RulersVisible" value="1"/>
<vectornator:setting key="GuidesVisible" value="1"/>
<vectornator:setting key="SnapToEdges" value="0"/>
<vectornator:setting key="DisplayWhiteBackground" value="0"/>
<vectornator:setting key="TimeLapseWatermarkDisabled" value="1"/>
<vectornator:setting key="SnapToGuides" value="1"/>
<vectornator:setting key="GridSpacing" value="36"/>
<vectornator:setting key="DynamicGuides" value="0"/>
<vectornator:setting key="Units" value="Pixels"/>
<vectornator:setting key="SnapToGrid" value="0"/>
</metadata>
<defs>
<linearGradient y1="512" id="LinearGradient" x1="34.5" y2="512" x2="989.5" gradientUnits="userSpaceOnUse" gradientTransform="matrix(1 0 0 1 0 0)">
<stop stop-color="#34b2f6" offset="0.0242718"/>
<stop stop-color="#d225f8" offset="1"/>
</linearGradient>
<linearGradient y1="512.936" id="LinearGradient_2" x1="93.3161" y2="512.936" x2="667.29" gradientUnits="userSpaceOnUse" gradientTransform="matrix(1.04534 0 0 0.999993 -4.2313 0.00281047)">
<stop stop-color="#d225f8" offset="0"/>
<stop stop-color="#ff8103" offset="1"/>
</linearGradient>
</defs>
<g id="Ebene 1" vectornator:layerName="Ebene 1">
<path d="M193.667+352.833C106.14+352.833+34.5+424.474+34.5+512C34.5+599.526+106.14+671.167+193.667+671.167L830.333+671.167C917.86+671.167+989.5+599.526+989.5+512C989.5+424.474+917.86+352.833+830.333+352.833L193.667+352.833ZM607.5+416.5L830.333+416.5C883.447+416.5+925.833+458.887+925.833+512C925.833+565.113+883.447+607.5+830.333+607.5L607.5+607.5L607.5+416.5Z" opacity="1" fill="url(#LinearGradient)"/>
<path stroke="#000000" stroke-width="2" d="M193.316+417.273C138.326+417.273+93.3161+460.33+93.3161+512.935C93.3161+565.54+138.326+608.597+193.316+608.597L593.316+608.597C648.306+608.597+693.316+565.54+693.316+512.935C693.316+460.33+648.306+417.273+593.316+417.273L193.316+417.273Z" fill="url(#LinearGradient_2)" stroke-linecap="butt" opacity="1" stroke-linejoin="miter"/>
<g opacity="1">
<path d="M191.159+487.784C193.655+486.056+196.607+484.544+200.015+483.248C203.423+481.952+207.143+481.304+211.175+481.304C215.111+481.304+217.703+481.88+218.951+483.032C220.199+484.184+220.823+486.008+220.823+488.504C220.823+489.464+220.727+490.808+220.535+492.536C220.343+494.264+219.911+496.04+219.239+497.864C218.183+497.384+217.223+497.072+216.359+496.928C215.495+496.784+214.679+496.712+213.911+496.712C213.047+496.712+212.039+496.904+210.887+497.288C209.735+497.672+208.679+498.248+207.719+499.016L207.575+551.864C207.575+552.632+207.479+553.208+207.287+553.592C207.095+553.976+206.495+554.24+205.487+554.384C204.479+554.528+202.871+554.624+200.663+554.672C198.455+554.72+195.287+554.744+191.159+554.744L191.159+487.784Z" opacity="1" fill="#ffffff"/>
<path d="M250.775+481.304C256.535+481.304+261.047+483.128+264.311+486.776C267.575+490.424+269.207+496.424+269.207+504.776C269.207+508.232+269.063+511.808+268.775+515.504C268.487+519.2+267.959+522.44+267.191+525.224C265.463+525.608+263.519+525.92+261.359+526.16C259.199+526.4+256.991+526.616+254.735+526.808C252.479+527+250.271+527.144+248.111+527.24C245.951+527.336+244.007+527.384+242.279+527.384C242.471+531.992+243.215+535.328+244.511+537.392C245.807+539.456+248.183+540.488+251.639+540.488C254.231+540.488+256.799+540.128+259.343+539.408C261.887+538.688+264.407+537.704+266.903+536.456C267.383+537.896+267.719+539.648+267.911+541.712C268.103+543.776+268.199+545.624+268.199+547.256C268.199+548.696+267.671+549.968+266.615+551.072C265.559+552.176+264.095+553.112+262.223+553.88C260.351+554.648+258.167+555.224+255.671+555.608C253.175+555.992+250.535+556.184+247.751+556.184C244.487+556.184+241.487+555.704+238.751+554.744C236.015+553.784+233.663+552.032+231.695+549.488C229.727+546.944+228.191+543.464+227.087+539.048C225.983+534.632+225.431+529.016+225.431+522.2C225.431+513.464+226.127+506.432+227.519+501.104C228.911+495.776+230.759+491.648+233.063+488.72C235.367+485.792+238.055+483.824+241.127+482.816C244.199+481.808+247.415+481.304+250.775+481.304ZM248.615+495.272C246.407+495.272+244.823+496.856+243.863+500.024C242.903+503.192+242.327+508.088+242.135+514.712C244.151+514.712+246.167+514.616+248.183+514.424C250.199+514.232+251.735+513.896+252.791+513.416C253.079+512.552+253.271+511.376+253.367+509.888C253.463+508.4+253.511+507.08+253.511+505.928C253.511+503.624+253.415+501.776+253.223+500.384C253.031+498.992+252.743+497.912+252.359+497.144C251.975+496.376+251.471+495.872+250.847+495.632C250.223+495.392+249.479+495.272+248.615+495.272Z" opacity="1" fill="#ffffff"/>
<path d="M292.967+551.864C292.967+552.632+292.871+553.208+292.679+553.592C292.487+553.976+291.887+554.24+290.879+554.384C289.871+554.528+288.287+554.624+286.127+554.672C283.967+554.72+280.871+554.744+276.839+554.744L276.839+455.96C276.839+454.232+277.055+452.888+277.487+451.928C277.919+450.968+278.735+450.272+279.935+449.84C281.135+449.408+282.791+449.144+284.903+449.048C287.015+448.952+289.703+448.904+292.967+448.904L292.967+551.864Z" opacity="1" fill="#ffffff"/>
<path d="M318.887+551.864C318.887+552.632+318.791+553.208+318.599+553.592C318.407+553.976+317.807+554.24+316.799+554.384C315.791+554.528+314.159+554.624+311.903+554.672C309.647+554.72+306.503+554.744+302.471+554.744L302.471+489.8C302.471+488.072+302.711+486.728+303.191+485.768C303.671+484.808+304.511+484.112+305.711+483.68C306.911+483.248+308.567+482.984+310.679+482.888C312.791+482.792+315.527+482.744+318.887+482.744L318.887+551.864ZM303.191+461.72C303.191+458.36+303.887+455.648+305.279+453.584C306.671+451.52+308.903+450.488+311.975+450.488C314.951+450.488+316.967+451.256+318.023+452.792C319.079+454.328+319.607+457.064+319.607+461C319.607+464.936+318.863+467.984+317.375+470.144C315.887+472.304+313.751+473.384+310.967+473.384C308.567+473.384+306.671+472.568+305.279+470.936C303.887+469.304+303.191+466.232+303.191+461.72Z" opacity="1" fill="#ffffff"/>
</g>
</g>
</svg>
