<?xml version="1.0" encoding="UTF-8" standalone="no"?> <!-- Created with Vectornator for iOS (http://vectornator.io/) --><!DOCTYPE svg PUBLIC "-//W3C//DTD SVG 1.1//EN" "http://www.w3.org/Graphics/SVG/1.1/DTD/svg11.dtd">
<svg height="100%" style="fill-rule:evenodd;clip-rule:evenodd;stroke-linecap:round;stroke-linejoin:round;" xmlns:xlink="http://www.w3.org/1999/xlink" xmlns="http://www.w3.org/2000/svg" xml:space="preserve" width="100%" xmlns:vectornator="http://vectornator.io" version="1.1" viewBox="0 0 1024 1024">
<metadata>
<vectornator:setting key="DimensionsVisible" value="1"/>
<vectornator:setting key="Units" value="Pixels"/>
<vectornator:setting key="SnapToPoints" value="0"/>
<vectornator:setting key="OutlineMode" value="0"/>
<vectornator:setting key="RulersVisible" value="1"/>
<vectornator:setting key="GuidesVisible" value="1"/>
<vectornator:setting key="SnapToEdges" value="0"/>
<vectornator:setting key="CMYKEnabledKey" value="0"/>
<vectornator:setting key="DisplayWhiteBackground" value="0"/>
<vectornator:setting key="TimeLapseWatermarkDisabled" value="1"/>
<vectornator:setting key="SnapToGuides" value="1"/>
<vectornator:setting key="GridSpacing" value="36"/>
<vectornator:setting key="SnapToGrid" value="0"/>
<vectornator:setting key="DynamicGuides" value="0"/>
<vectornator:setting key="New" value="1"/>
</metadata>
<defs>
<linearGradient y1="512" id="LinearGradient" x1="34.5" y2="512" x2="989.5" gradientUnits="userSpaceOnUse" gradientTransform="matrix(1 0 0 1 0 0)">
<stop stop-color="#34b2f6" offset="0.0242718"/>
<stop stop-color="#d225f8" offset="1"/>
</linearGradient>
<linearGradient y1="512.936" id="LinearGradient_2" x1="93.3161" y2="512.936" x2="667.29" gradientUnits="userSpaceOnUse" gradientTransform="matrix(1.04534 0 0 0.999993 -4.2313 0.00281047)">
<stop stop-color="#d225f8" offset="0"/>
<stop stop-color="#ff8103" offset="1"/>
</linearGradient>
</defs>
<g id="Ebene 1" vectornator:layerName="Ebene 1">
<path d="M193.667+352.833C106.14+352.833+34.5+424.474+34.5+512C34.5+599.526+106.14+671.167+193.667+671.167L830.333+671.167C917.86+671.167+989.5+599.526+989.5+512C989.5+424.474+917.86+352.833+830.333+352.833L193.667+352.833ZM607.5+416.5L830.333+416.5C883.447+416.5+925.833+458.887+925.833+512C925.833+565.113+883.447+607.5+830.333+607.5L607.5+607.5L607.5+416.5Z" opacity="1" fill="url(#LinearGradient)"/>
<path stroke="#000000" stroke-width="2" d="M193.316+417.273C138.326+417.273+93.3161+460.33+93.3161+512.935C93.3161+565.54+138.326+608.597+193.316+608.597L593.316+608.597C648.306+608.597+693.316+565.54+693.316+512.935C693.316+460.33+648.306+417.273+593.316+417.273L193.316+417.273Z" fill="url(#LinearGradient_2)" stroke-linecap="butt" opacity="1" stroke-linejoin="miter"/>
<g opacity="1">
<path d="M344.352+552.213C344.352+552.981+344.256+553.557+344.064+553.941C343.872+554.325+343.272+554.589+342.264+554.733C341.256+554.877+339.672+554.973+337.512+555.021C335.352+555.069+332.256+555.093+328.224+555.093L328.224+456.309C328.224+454.581+328.44+453.237+328.872+452.277C329.304+451.317+330.12+450.621+331.32+450.189C332.52+449.757+334.176+449.493+336.288+449.397C338.4+449.301+341.088+449.253+344.352+449.253L344.352+552.213Z" opacity="1" fill="#ffffff"/>
<path d="M352.272+490.869C352.272+490.005+352.44+489.069+352.776+488.061C353.112+487.053+353.616+486.309+354.288+485.829C355.344+485.061+357.744+484.173+361.488+483.165C365.232+482.157+369.984+481.653+375.744+481.653C382.368+481.653+387.048+482.949+389.784+485.541C392.52+488.133+393.888+492.693+393.888+499.221L393.888+505.989C393.888+510.117+393.888+514.341+393.888+518.661C393.888+522.981+393.864+527.157+393.816+531.189C393.768+535.221+393.696+539.013+393.6+542.565C393.504+546.117+393.36+549.237+393.168+551.925C390.672+553.365+387.672+554.493+384.168+555.309C380.664+556.125+376.752+556.533+372.432+556.533C369.744+556.533+367.176+556.293+364.728+555.813C362.28+555.333+360.12+554.325+358.248+552.789C356.376+551.253+354.864+548.997+353.712+546.021C352.56+543.045+351.984+539.061+351.984+534.069C351.984+529.173+352.44+525.165+353.352+522.045C354.264+518.925+355.488+516.501+357.024+514.773C358.56+513.045+360.336+511.869+362.352+511.245C364.368+510.621+366.432+510.309+368.544+510.309C369.6+510.309+371.064+510.453+372.936+510.741C374.808+511.029+376.416+511.605+377.76+512.469L377.76+502.533C377.76+500.613+377.304+499.245+376.392+498.429C375.48+497.613+373.92+497.205+371.712+497.205C369.024+497.205+366.072+497.493+362.856+498.069C359.64+498.645+356.832+499.365+354.432+500.229C353.568+498.597+352.992+496.917+352.704+495.189C352.416+493.461+352.272+492.021+352.272+490.869ZM377.76+523.269C377.28+522.789+376.68+522.477+375.96+522.333C375.24+522.189+374.592+522.117+374.016+522.117C372.384+522.117+371.136+522.885+370.272+524.421C369.408+525.957+368.976+529.029+368.976+533.637C368.976+537.093+369.288+539.565+369.912+541.053C370.536+542.541+371.76+543.285+373.584+543.285C374.256+543.285+374.952+543.165+375.672+542.925C376.392+542.685+376.992+542.325+377.472+541.845C377.568+541.077+377.64+539.949+377.688+538.461C377.736+536.973+377.76+535.365+377.76+533.637C377.76+531.909+377.76+530.133+377.76+528.309C377.76+526.485+377.76+524.805+377.76+523.269Z" opacity="1" fill="#ffffff"/>
<path d="M402.816+456.453C402.816+454.629+403.032+453.237+403.464+452.277C403.896+451.317+404.688+450.621+405.84+450.189C406.992+449.757+408.624+449.493+410.736+449.397C412.848+449.301+415.584+449.253+418.944+449.253L418.944+485.829C420.48+484.485+422.28+483.453+424.344+482.733C426.408+482.013+428.688+481.653+431.184+481.653C434.064+481.653+436.512+482.157+438.528+483.165C440.544+484.173+442.224+485.829+443.568+488.133C444.912+490.437+445.896+493.461+446.52+497.205C447.144+500.949+447.456+505.509+447.456+510.885C447.456+521.157+446.592+529.293+444.864+535.293C443.136+541.293+440.928+545.877+438.24+549.045C435.552+552.213+432.552+554.253+429.24+555.165C425.928+556.077+422.736+556.533+419.664+556.533C415.824+556.533+412.464+556.149+409.584+555.381C406.704+554.613+404.448+553.557+402.816+552.213L402.816+456.453ZM418.944+541.269C419.712+542.037+420.768+542.421+422.112+542.421C422.784+542.421+423.528+542.061+424.344+541.341C425.16+540.621+425.928+539.229+426.648+537.165C427.368+535.101+427.968+532.197+428.448+528.453C428.928+524.709+429.168+519.813+429.168+513.765C429.168+507.141+428.712+502.533+427.8+499.941C426.888+497.349+425.52+496.053+423.696+496.053C421.872+496.053+420.288+496.725+418.944+498.069L418.944+541.269Z" opacity="1" fill="#ffffff"/>
</g>
</g>
</svg>
